<svg width="12" height="12" viewBox="0 0 12 12" fill="none" xmlns="http://www.w3.org/2000/svg">
<path d="M11.599 5.39077C11.6062 6.0065 11.4993 6.61824 11.2836 7.19503C10.8918 8.21004 10.1357 8.94424 9.05536 8.94424C8.75207 8.95664 8.45184 8.87947 8.19212 8.72236C7.9324 8.56525 7.72469 8.33516 7.59488 8.06077C7.33687 8.332 7.02789 8.54964 6.68562 8.70125C6.34335 8.85285 5.97454 8.93543 5.6003 8.94424C5.24829 8.96298 4.89625 8.90779 4.56686 8.78222C4.23747 8.65665 3.93804 8.46349 3.68783 8.21517C2.75071 7.23561 2.67235 5.07871 3.90706 3.89157C4.91088 2.92647 6.22442 2.90082 7.60561 3.12098C8.00216 3.17816 8.3932 3.26866 8.77455 3.39153L8.61689 6.73976C8.61689 7.37415 8.79056 7.69134 9.13792 7.69134C9.43023 7.69134 9.66346 7.47786 9.83761 7.05089C10.0295 6.5145 10.118 5.94659 10.0984 5.37724C10.1118 4.70044 9.95408 4.03121 9.63983 3.43164C9.32154 2.87374 8.85389 2.41571 8.28949 2.10908C7.72509 1.80244 7.08633 1.65937 6.44506 1.69596C5.60707 1.67427 4.77769 1.86933 4.0372 2.26224C2.56413 3.08227 1.92602 4.66263 1.92602 6.37733C1.89072 6.90374 1.9621 7.43187 2.13587 7.93002C2.30964 8.42818 2.58224 8.88612 2.9373 9.27636C4.40944 10.748 7.22871 10.3716 9.17897 9.65652V10.9715C8.14685 11.3973 7.03905 11.6093 5.92263 11.5947C4.18585 11.5947 2.83188 11.1382 1.86071 10.2251C0.889547 9.31212 0.403965 8.04274 0.403965 6.41698C0.365364 5.36775 0.610947 4.32759 1.11476 3.40643C1.61857 2.48527 2.36189 1.71733 3.26615 1.18378C4.23333 0.64827 5.32481 0.377772 6.43013 0.399669C8.29596 0.399669 10.034 1.146 10.9548 2.76881C11.3954 3.57132 11.6175 4.47545 11.599 5.39077ZM4.57923 6.24718C4.57923 7.2112 4.9723 7.6932 5.75843 7.6932C6.75945 7.6932 7.01787 6.84518 7.0883 5.84417L7.1774 4.33144C6.91806 4.27824 6.65381 4.25275 6.38908 4.25541C5.19075 4.25448 4.57923 5.07264 4.57923 6.24718Z" fill="#3F9CDC"/>
</svg>
