<svg width="12" height="12" viewBox="0 0 12 12" fill="none" xmlns="http://www.w3.org/2000/svg">
<path d="M8.09998 0.400024C7.18998 0.400024 6.27998 0.750024 5.64998 1.45002L4.80998 2.22002C4.52998 2.50002 4.52998 2.92002 4.80998 3.20002C5.08998 3.48002 5.50998 3.48002 5.78998 3.20002L6.62997 2.36002C7.39997 1.59002 8.79998 1.59002 9.56998 2.36002C9.98998 2.78002 10.2 3.34002 10.2 3.90002C10.2 4.46002 9.98998 5.02002 9.56998 5.37002L8.79998 6.21002C8.51998 6.49003 8.51998 6.91002 8.79998 7.19002C8.93998 7.33002 9.14997 7.40002 9.28998 7.40002C9.42998 7.40002 9.63997 7.33002 9.77997 7.19002L10.62 6.35002C11.25 5.72002 11.6 4.81002 11.6 3.90002C11.6 2.99002 11.25 2.08002 10.55 1.45002C9.91998 0.750024 9.00997 0.400024 8.09998 0.400024Z" fill="#3F9CDC"/>
<path d="M6.21002 8.79998L5.37002 9.63998C4.60002 10.41 3.20002 10.41 2.43002 9.63998C2.01002 9.21997 1.80002 8.65998 1.80002 8.09998C1.80002 7.53998 2.01002 6.97997 2.43002 6.62997L3.20002 5.78998C3.48002 5.50998 3.48002 5.08998 3.20002 4.80998C2.92002 4.52998 2.50002 4.52998 2.22002 4.80998L1.45002 5.64998C0.750024 6.27998 0.400024 7.18998 0.400024 8.09998C0.400024 9.00997 0.750024 9.91998 1.45002 10.55C2.08002 11.25 2.99002 11.6 3.90002 11.6C4.81002 11.6 5.72002 11.25 6.35002 10.55L7.19002 9.70998C7.47002 9.42998 7.47002 9.00997 7.19002 8.72997C6.91002 8.44998 6.49003 8.51998 6.21002 8.79998Z" fill="#3F9CDC"/>
<path d="M6.98008 4.03996L4.04008 6.97996C3.76008 7.25996 3.76008 7.67996 4.04008 7.95996C4.18008 8.09996 4.39008 8.16996 4.53008 8.16996C4.67008 8.16996 4.88008 8.09996 5.02008 7.95996L7.96008 5.01996C8.24008 4.73996 8.24008 4.31996 7.96008 4.03996C7.68008 3.75996 7.26008 3.75996 6.98008 4.03996Z" fill="#3F9CDC"/>
</svg>
